<mxfile host="app.diagrams.net" modified="2023-05-15T18:13:13.549Z" agent="Mozilla/5.0 (Windows NT 10.0; Win64; x64) AppleWebKit/537.36 (KHTML, like Gecko) Chrome/113.0.0.0 Safari/537.36" etag="pn2NjVRWEWZIEfMx0M-Q" version="21.3.2" type="github">
  <diagram name="第 1 页" id="Qb4k8GEXQSuuynJWTsJw">
    <mxGraphModel dx="1434" dy="788" grid="1" gridSize="10" guides="1" tooltips="1" connect="1" arrows="1" fold="1" page="1" pageScale="1" pageWidth="827" pageHeight="1169" math="1" shadow="0">
      <root>
        <mxCell id="0" />
        <mxCell id="1" parent="0" />
        <mxCell id="cO3do4uqvuR1OUD0Ebkf-10" style="rounded=0;orthogonalLoop=1;jettySize=auto;html=1;exitX=0;exitY=0.5;exitDx=0;exitDy=0;entryX=1;entryY=0;entryDx=0;entryDy=0;dashed=1;dashPattern=12 12;" parent="1" source="cO3do4uqvuR1OUD0Ebkf-1" target="cO3do4uqvuR1OUD0Ebkf-2" edge="1">
          <mxGeometry relative="1" as="geometry" />
        </mxCell>
        <mxCell id="cO3do4uqvuR1OUD0Ebkf-11" style="rounded=0;orthogonalLoop=1;jettySize=auto;html=1;exitX=0.5;exitY=1;exitDx=0;exitDy=0;dashed=1;dashPattern=12 12;" parent="1" source="cO3do4uqvuR1OUD0Ebkf-1" target="cO3do4uqvuR1OUD0Ebkf-3" edge="1">
          <mxGeometry relative="1" as="geometry" />
        </mxCell>
        <mxCell id="cO3do4uqvuR1OUD0Ebkf-12" style="rounded=0;orthogonalLoop=1;jettySize=auto;html=1;exitX=0.5;exitY=1;exitDx=0;exitDy=0;dashed=1;dashPattern=12 12;" parent="1" source="cO3do4uqvuR1OUD0Ebkf-1" target="cO3do4uqvuR1OUD0Ebkf-4" edge="1">
          <mxGeometry relative="1" as="geometry" />
        </mxCell>
        <mxCell id="cO3do4uqvuR1OUD0Ebkf-13" style="rounded=0;orthogonalLoop=1;jettySize=auto;html=1;exitX=1;exitY=0.5;exitDx=0;exitDy=0;entryX=0;entryY=0;entryDx=0;entryDy=0;dashed=1;dashPattern=12 12;" parent="1" source="cO3do4uqvuR1OUD0Ebkf-1" target="cO3do4uqvuR1OUD0Ebkf-5" edge="1">
          <mxGeometry relative="1" as="geometry" />
        </mxCell>
        <mxCell id="cO3do4uqvuR1OUD0Ebkf-1" value="&lt;font style=&quot;font-size: 18px;&quot;&gt;A&lt;/font&gt;" style="ellipse;whiteSpace=wrap;html=1;aspect=fixed;fillColor=#dae8fc;strokeColor=#6c8ebf;" parent="1" vertex="1">
          <mxGeometry x="360" y="80" width="80" height="80" as="geometry" />
        </mxCell>
        <mxCell id="cO3do4uqvuR1OUD0Ebkf-15" style="rounded=0;orthogonalLoop=1;jettySize=auto;html=1;exitX=0.5;exitY=1;exitDx=0;exitDy=0;entryX=0;entryY=0;entryDx=0;entryDy=0;" parent="1" source="cO3do4uqvuR1OUD0Ebkf-2" target="cO3do4uqvuR1OUD0Ebkf-6" edge="1">
          <mxGeometry relative="1" as="geometry" />
        </mxCell>
        <mxCell id="cO3do4uqvuR1OUD0Ebkf-2" value="&lt;font style=&quot;font-size: 18px;&quot;&gt;$$k_{11}$$&lt;/font&gt;" style="ellipse;whiteSpace=wrap;html=1;aspect=fixed;fillColor=#fff2cc;strokeColor=#d6b656;" parent="1" vertex="1">
          <mxGeometry x="140" y="240" width="80" height="80" as="geometry" />
        </mxCell>
        <mxCell id="cO3do4uqvuR1OUD0Ebkf-14" style="rounded=0;orthogonalLoop=1;jettySize=auto;html=1;exitX=0.5;exitY=1;exitDx=0;exitDy=0;dashed=1;dashPattern=12 12;" parent="1" source="cO3do4uqvuR1OUD0Ebkf-3" target="cO3do4uqvuR1OUD0Ebkf-7" edge="1">
          <mxGeometry relative="1" as="geometry" />
        </mxCell>
        <mxCell id="cO3do4uqvuR1OUD0Ebkf-3" value="&lt;font style=&quot;font-size: 18px;&quot;&gt;$$k_{21}$$&lt;/font&gt;" style="ellipse;whiteSpace=wrap;html=1;aspect=fixed;fillColor=#f5f5f5;fontColor=#333333;strokeColor=#666666;" parent="1" vertex="1">
          <mxGeometry x="280" y="240" width="80" height="80" as="geometry" />
        </mxCell>
        <mxCell id="cO3do4uqvuR1OUD0Ebkf-17" style="rounded=0;orthogonalLoop=1;jettySize=auto;html=1;exitX=0.5;exitY=1;exitDx=0;exitDy=0;entryX=0.5;entryY=0;entryDx=0;entryDy=0;" parent="1" source="cO3do4uqvuR1OUD0Ebkf-4" target="cO3do4uqvuR1OUD0Ebkf-6" edge="1">
          <mxGeometry relative="1" as="geometry" />
        </mxCell>
        <mxCell id="cO3do4uqvuR1OUD0Ebkf-4" value="&lt;font style=&quot;font-size: 18px;&quot;&gt;$$k_{31}$$&lt;/font&gt;" style="ellipse;whiteSpace=wrap;html=1;aspect=fixed;fillColor=#fff2cc;strokeColor=#d6b656;" parent="1" vertex="1">
          <mxGeometry x="440" y="240" width="80" height="80" as="geometry" />
        </mxCell>
        <mxCell id="cO3do4uqvuR1OUD0Ebkf-18" style="rounded=0;orthogonalLoop=1;jettySize=auto;html=1;exitX=0.5;exitY=1;exitDx=0;exitDy=0;dashed=1;dashPattern=12 12;" parent="1" source="cO3do4uqvuR1OUD0Ebkf-5" target="cO3do4uqvuR1OUD0Ebkf-8" edge="1">
          <mxGeometry relative="1" as="geometry" />
        </mxCell>
        <mxCell id="cO3do4uqvuR1OUD0Ebkf-5" value="&lt;font style=&quot;font-size: 18px;&quot;&gt;$$k_{41}$$&lt;/font&gt;" style="ellipse;whiteSpace=wrap;html=1;aspect=fixed;fillColor=#f5f5f5;fontColor=#333333;strokeColor=#666666;" parent="1" vertex="1">
          <mxGeometry x="580" y="240" width="80" height="80" as="geometry" />
        </mxCell>
        <mxCell id="cO3do4uqvuR1OUD0Ebkf-6" value="&lt;font style=&quot;font-size: 18px;&quot;&gt;B&lt;/font&gt;" style="ellipse;whiteSpace=wrap;html=1;aspect=fixed;fillColor=#dae8fc;strokeColor=#6c8ebf;" parent="1" vertex="1">
          <mxGeometry x="360" y="570" width="80" height="80" as="geometry" />
        </mxCell>
        <mxCell id="cO3do4uqvuR1OUD0Ebkf-16" style="rounded=0;orthogonalLoop=1;jettySize=auto;html=1;exitX=0.5;exitY=1;exitDx=0;exitDy=0;" parent="1" source="cO3do4uqvuR1OUD0Ebkf-7" target="cO3do4uqvuR1OUD0Ebkf-6" edge="1">
          <mxGeometry relative="1" as="geometry" />
        </mxCell>
        <mxCell id="cO3do4uqvuR1OUD0Ebkf-7" value="&lt;font style=&quot;font-size: 18px;&quot;&gt;$$k_{22}$$&lt;/font&gt;" style="ellipse;whiteSpace=wrap;html=1;aspect=fixed;fillColor=#fff2cc;strokeColor=#d6b656;" parent="1" vertex="1">
          <mxGeometry x="334" y="400" width="80" height="80" as="geometry" />
        </mxCell>
        <mxCell id="cO3do4uqvuR1OUD0Ebkf-19" style="rounded=0;orthogonalLoop=1;jettySize=auto;html=1;exitX=0;exitY=1;exitDx=0;exitDy=0;entryX=1;entryY=0;entryDx=0;entryDy=0;" parent="1" source="cO3do4uqvuR1OUD0Ebkf-8" target="cO3do4uqvuR1OUD0Ebkf-6" edge="1">
          <mxGeometry relative="1" as="geometry" />
        </mxCell>
        <mxCell id="cO3do4uqvuR1OUD0Ebkf-8" value="&lt;font style=&quot;font-size: 18px;&quot;&gt;$$k_{42}$$&lt;/font&gt;" style="ellipse;whiteSpace=wrap;html=1;aspect=fixed;fillColor=#fff2cc;strokeColor=#d6b656;" parent="1" vertex="1">
          <mxGeometry x="530" y="400" width="80" height="80" as="geometry" />
        </mxCell>
        <mxCell id="cO3do4uqvuR1OUD0Ebkf-20" value="" style="endArrow=classic;html=1;rounded=0;" parent="1" edge="1">
          <mxGeometry width="50" height="50" relative="1" as="geometry">
            <mxPoint x="520" y="554.5" as="sourcePoint" />
            <mxPoint x="580" y="554.5" as="targetPoint" />
          </mxGeometry>
        </mxCell>
        <mxCell id="cO3do4uqvuR1OUD0Ebkf-21" value="&lt;font style=&quot;font-size: 18px;&quot;&gt;直接信任&lt;/font&gt;" style="text;html=1;strokeColor=none;fillColor=none;align=center;verticalAlign=middle;whiteSpace=wrap;rounded=0;" parent="1" vertex="1">
          <mxGeometry x="580" y="540" width="100" height="30" as="geometry" />
        </mxCell>
        <mxCell id="cO3do4uqvuR1OUD0Ebkf-22" value="" style="endArrow=classic;html=1;rounded=0;dashed=1;dashPattern=12 12;" parent="1" edge="1">
          <mxGeometry width="50" height="50" relative="1" as="geometry">
            <mxPoint x="520" y="584" as="sourcePoint" />
            <mxPoint x="580" y="584" as="targetPoint" />
          </mxGeometry>
        </mxCell>
        <mxCell id="cO3do4uqvuR1OUD0Ebkf-24" value="&lt;font style=&quot;font-size: 18px;&quot;&gt;间接信任&lt;/font&gt;" style="text;html=1;strokeColor=none;fillColor=none;align=center;verticalAlign=middle;whiteSpace=wrap;rounded=0;" parent="1" vertex="1">
          <mxGeometry x="585" y="570" width="90" height="30" as="geometry" />
        </mxCell>
      </root>
    </mxGraphModel>
  </diagram>
</mxfile>
